# ProBuilder 5.0.6
# https://unity3d.com/unity/features/worldbuilding/probuilder
# 30.08.2022 12:47:39

mtllib ./Cylinder_(1).mtl
o Cylinder (1)

g Cylinder (1)
v -0.5 -0.25 0
v -0.5 0.25 0
v -0.4938442 -0.25 0.07821724
v -0.4938442 0.25 0.07821724
v -0.4755283 -0.25 0.1545085
v -0.4755283 0.25 0.1545085
v -0.4455033 -0.25 0.2269952
v -0.4455033 0.25 0.2269952
v -0.4045085 -0.25 0.2938926
v -0.4045085 0.25 0.2938926
v -0.3535534 -0.25 0.3535534
v -0.3535534 0.25 0.3535534
v -0.2938927 -0.25 0.4045085
v -0.2938927 0.25 0.4045085
v -0.2269953 -0.25 0.4455033
v -0.2269953 0.25 0.4455033
v -0.1545085 -0.25 0.4755283
v -0.1545085 0.25 0.4755283
v -0.07821725 -0.25 0.4938442
v -0.07821725 0.25 0.4938442
v 2.185569E-08 -0.25 0.5
v 2.185569E-08 0.25 0.5
v 0.07821722 -0.25 0.4938442
v 0.07821722 0.25 0.4938442
v 0.1545085 -0.25 0.4755283
v 0.1545085 0.25 0.4755283
v 0.2269952 -0.25 0.4455033
v 0.2269952 0.25 0.4455033
v 0.2938926 -0.25 0.4045085
v 0.2938926 0.25 0.4045085
v 0.3535534 -0.25 0.3535534
v 0.3535534 0.25 0.3535534
v 0.4045085 -0.25 0.2938926
v 0.4045085 0.25 0.2938926
v 0.4455032 -0.25 0.2269953
v 0.4455032 0.25 0.2269953
v 0.4755282 -0.25 0.1545085
v 0.4755282 0.25 0.1545085
v 0.4938442 -0.25 0.07821722
v 0.4938442 0.25 0.07821722
v 0.5 -0.25 -4.371139E-08
v 0.5 0.25 -4.371139E-08
v 0.4938442 -0.25 -0.07821719
v 0.4938442 0.25 -0.07821719
v 0.4755283 -0.25 -0.1545085
v 0.4755283 0.25 -0.1545085
v 0.4455033 -0.25 -0.2269953
v 0.4455033 0.25 -0.2269953
v 0.4045085 -0.25 -0.2938926
v 0.4045085 0.25 -0.2938926
v 0.3535534 -0.25 -0.3535534
v 0.3535534 0.25 -0.3535534
v 0.2938927 -0.25 -0.4045084
v 0.2938927 0.25 -0.4045084
v 0.2269953 -0.25 -0.4455032
v 0.2269953 0.25 -0.4455032
v 0.1545085 -0.25 -0.4755282
v 0.1545085 0.25 -0.4755282
v 0.07821726 -0.25 -0.4938442
v 0.07821726 0.25 -0.4938442
v -5.96244E-09 -0.25 -0.5
v -5.96244E-09 0.25 -0.5
v -0.07821727 -0.25 -0.4938442
v -0.07821727 0.25 -0.4938442
v -0.1545086 -0.25 -0.4755282
v -0.1545086 0.25 -0.4755282
v -0.2269951 -0.25 -0.4455033
v -0.2269951 0.25 -0.4455033
v -0.2938925 -0.25 -0.4045086
v -0.2938925 0.25 -0.4045086
v -0.3535533 -0.25 -0.3535534
v -0.3535533 0.25 -0.3535534
v -0.4045085 -0.25 -0.2938927
v -0.4045085 0.25 -0.2938927
v -0.4455033 -0.25 -0.2269953
v -0.4455033 0.25 -0.2269953
v -0.4755283 -0.25 -0.1545085
v -0.4755283 0.25 -0.1545085
v -0.4938442 -0.25 -0.07821718
v -0.4938442 0.25 -0.07821718
v 0 -0.25 0
v 0 0.25 0

vt -0.03922947 -0.25
vt -0.03922947 0.25
vt 0.03922963 -0.25
vt 0.03922963 0.25
vt -0.5 0
vt 0 0
vt -0.4938442 0.07821724
vt 0.5 0
vt 0.4938442 0.07821724
vt -0.4755283 0.1545085
vt 0.4755283 0.1545085
vt -0.4455033 0.2269952
vt 0.4455033 0.2269952
vt -0.4045085 0.2938926
vt 0.4045085 0.2938926
vt -0.3535534 0.3535534
vt 0.3535534 0.3535534
vt -0.2938927 0.4045085
vt 0.2938927 0.4045085
vt -0.2269953 0.4455033
vt 0.2269953 0.4455033
vt -0.1545085 0.4755283
vt 0.1545085 0.4755283
vt -0.07821725 0.4938442
vt 0.07821725 0.4938442
vt 2.185569E-08 0.5
vt 0.4938442 -0.07821719
vt -0.4938442 -0.07821719
vt 0.4755283 -0.1545085
vt -0.4755283 -0.1545085
vt 0.4455033 -0.2269953
vt -0.4455033 -0.2269953
vt 0.4045085 -0.2938926
vt -0.4045085 -0.2938926
vt 0.3535534 -0.3535534
vt -0.3535534 -0.3535534
vt 0.2938927 -0.4045084
vt -0.2938927 -0.4045084
vt 0.2269953 -0.4455032
vt -0.2269953 -0.4455032
vt 0.1545085 -0.4755282
vt -0.1545085 -0.4755282
vt 0.07821726 -0.4938442
vt -0.07821726 -0.4938442
vt -5.96244E-09 -0.5

vn -1 0 -2.989448E-08
vn -0.9876884 0 0.1564344
vn -0.9510565 0 0.3090171
vn -0.8910065 0 0.4539906
vn -0.8090169 0 0.5877853
vn -0.7071068 0 0.7071067
vn -0.5877854 0 0.8090169
vn -0.4539904 0 0.8910065
vn -0.309017 0 0.9510565
vn -0.1564344 0 0.9876884
vn 3.363128E-08 0 1
vn 0.1564344 0 0.9876883
vn 0.3090169 0 0.9510565
vn 0.4539905 0 0.8910065
vn 0.5877853 0 0.809017
vn 0.7071067 0 0.7071069
vn 0.8090171 0 0.5877852
vn 0.8910065 0 0.4539904
vn 0.9510565 0 0.3090171
vn 0.9876883 0 0.1564345
vn 1 0 -6.352576E-08
vn 0.9876884 0 -0.1564344
vn 0.9510566 0 -0.3090169
vn 0.8910065 0 -0.4539906
vn 0.809017 0 -0.5877853
vn 0.7071068 0 -0.7071067
vn 0.5877855 0 -0.8090168
vn 0.4539908 0 -0.8910064
vn 0.3090169 0 -0.9510565
vn 0.1564345 0 -0.9876883
vn -3.73681E-09 0 -1
vn -0.1564345 0 -0.9876883
vn -0.3090169 0 -0.9510565
vn -0.4539904 0 -0.8910066
vn -0.5877851 0 -0.8090171
vn -0.7071067 0 -0.7071069
vn -0.8090169 0 -0.5877854
vn -0.8910065 0 -0.4539905
vn -0.9510565 0 -0.3090169
vn -0.9876884 0 -0.1564344
vn 0 -1 0
vn 0 1 0

usemtl ProBuilderDefault
f 1/5/41 81/6/41 3/7/41
f 3/7/41 81/6/41 5/10/41
f 5/10/41 81/6/41 7/12/41
f 7/12/41 81/6/41 9/14/41
f 9/14/41 81/6/41 11/16/41
f 11/16/41 81/6/41 13/18/41
f 13/18/41 81/6/41 15/20/41
f 15/20/41 81/6/41 17/22/41
f 17/22/41 81/6/41 19/24/41
f 19/24/41 81/6/41 21/26/41
f 21/26/41 81/6/41 23/25/41
f 23/25/41 81/6/41 25/23/41
f 25/23/41 81/6/41 27/21/41
f 27/21/41 81/6/41 29/19/41
f 29/19/41 81/6/41 31/17/41
f 31/17/41 81/6/41 33/15/41
f 33/15/41 81/6/41 35/13/41
f 35/13/41 81/6/41 37/11/41
f 37/11/41 81/6/41 39/9/41
f 39/9/41 81/6/41 41/8/41
f 41/8/41 81/6/41 43/27/41
f 43/27/41 81/6/41 45/29/41
f 45/29/41 81/6/41 47/31/41
f 47/31/41 81/6/41 49/33/41
f 49/33/41 81/6/41 51/35/41
f 51/35/41 81/6/41 53/37/41
f 53/37/41 81/6/41 55/39/41
f 55/39/41 81/6/41 57/41/41
f 57/41/41 81/6/41 59/43/41
f 59/43/41 81/6/41 61/45/41
f 61/45/41 81/6/41 63/44/41
f 63/44/41 81/6/41 65/42/41
f 65/42/41 81/6/41 67/40/41
f 67/40/41 81/6/41 69/38/41
f 69/38/41 81/6/41 71/36/41
f 71/36/41 81/6/41 73/34/41
f 73/34/41 81/6/41 75/32/41
f 75/32/41 81/6/41 77/30/41
f 77/30/41 81/6/41 79/28/41
f 79/28/41 81/6/41 1/5/41
f 4/9/42 82/6/42 2/8/42
f 6/11/42 82/6/42 4/9/42
f 8/13/42 82/6/42 6/11/42
f 10/15/42 82/6/42 8/13/42
f 12/17/42 82/6/42 10/15/42
f 14/19/42 82/6/42 12/17/42
f 16/21/42 82/6/42 14/19/42
f 18/23/42 82/6/42 16/21/42
f 20/25/42 82/6/42 18/23/42
f 22/26/42 82/6/42 20/25/42
f 24/24/42 82/6/42 22/26/42
f 26/22/42 82/6/42 24/24/42
f 28/20/42 82/6/42 26/22/42
f 30/18/42 82/6/42 28/20/42
f 32/16/42 82/6/42 30/18/42
f 34/14/42 82/6/42 32/16/42
f 36/12/42 82/6/42 34/14/42
f 38/10/42 82/6/42 36/12/42
f 40/7/42 82/6/42 38/10/42
f 42/5/42 82/6/42 40/7/42
f 44/28/42 82/6/42 42/5/42
f 46/30/42 82/6/42 44/28/42
f 48/32/42 82/6/42 46/30/42
f 50/34/42 82/6/42 48/32/42
f 52/36/42 82/6/42 50/34/42
f 54/38/42 82/6/42 52/36/42
f 56/40/42 82/6/42 54/38/42
f 58/42/42 82/6/42 56/40/42
f 60/44/42 82/6/42 58/42/42
f 62/45/42 82/6/42 60/44/42
f 64/43/42 82/6/42 62/45/42
f 66/41/42 82/6/42 64/43/42
f 68/39/42 82/6/42 66/41/42
f 70/37/42 82/6/42 68/39/42
f 72/35/42 82/6/42 70/37/42
f 74/33/42 82/6/42 72/35/42
f 76/31/42 82/6/42 74/33/42
f 78/29/42 82/6/42 76/31/42
f 80/27/42 82/6/42 78/29/42
f 2/8/42 82/6/42 80/27/42
f 4/4/2 2/2/1 1/1/1
f 1/1/1 3/3/2 4/4/2
f 6/4/3 4/2/2 3/1/2
f 3/1/2 5/3/3 6/4/3
f 8/4/4 6/2/3 5/1/3
f 5/1/3 7/3/4 8/4/4
f 10/4/5 8/2/4 7/1/4
f 7/1/4 9/3/5 10/4/5
f 12/4/6 10/2/5 9/1/5
f 9/1/5 11/3/6 12/4/6
f 14/4/7 12/2/6 11/1/6
f 11/1/6 13/3/7 14/4/7
f 16/4/8 14/2/7 13/1/7
f 13/1/7 15/3/8 16/4/8
f 18/4/9 16/2/8 15/1/8
f 15/1/8 17/3/9 18/4/9
f 20/4/10 18/2/9 17/1/9
f 17/1/9 19/3/10 20/4/10
f 22/4/11 20/2/10 19/1/10
f 19/1/10 21/3/11 22/4/11
f 24/4/12 22/2/11 21/1/11
f 21/1/11 23/3/12 24/4/12
f 26/4/13 24/2/12 23/1/12
f 23/1/12 25/3/13 26/4/13
f 28/4/14 26/2/13 25/1/13
f 25/1/13 27/3/14 28/4/14
f 30/4/15 28/2/14 27/1/14
f 27/1/14 29/3/15 30/4/15
f 32/4/16 30/2/15 29/1/15
f 29/1/15 31/3/16 32/4/16
f 34/4/17 32/2/16 31/1/16
f 31/1/16 33/3/17 34/4/17
f 36/4/18 34/2/17 33/1/17
f 33/1/17 35/3/18 36/4/18
f 38/4/19 36/2/18 35/1/18
f 35/1/18 37/3/19 38/4/19
f 40/4/20 38/2/19 37/1/19
f 37/1/19 39/3/20 40/4/20
f 42/4/21 40/2/20 39/1/20
f 39/1/20 41/3/21 42/4/21
f 44/4/22 42/2/21 41/1/21
f 41/1/21 43/3/22 44/4/22
f 46/4/23 44/2/22 43/1/22
f 43/1/22 45/3/23 46/4/23
f 48/4/24 46/2/23 45/1/23
f 45/1/23 47/3/24 48/4/24
f 50/4/25 48/2/24 47/1/24
f 47/1/24 49/3/25 50/4/25
f 52/4/26 50/2/25 49/1/25
f 49/1/25 51/3/26 52/4/26
f 54/4/27 52/2/26 51/1/26
f 51/1/26 53/3/27 54/4/27
f 56/4/28 54/2/27 53/1/27
f 53/1/27 55/3/28 56/4/28
f 58/4/29 56/2/28 55/1/28
f 55/1/28 57/3/29 58/4/29
f 60/4/30 58/2/29 57/1/29
f 57/1/29 59/3/30 60/4/30
f 62/4/31 60/2/30 59/1/30
f 59/1/30 61/3/31 62/4/31
f 64/4/32 62/2/31 61/1/31
f 61/1/31 63/3/32 64/4/32
f 66/4/33 64/2/32 63/1/32
f 63/1/32 65/3/33 66/4/33
f 68/4/34 66/2/33 65/1/33
f 65/1/33 67/3/34 68/4/34
f 70/4/35 68/2/34 67/1/34
f 67/1/34 69/3/35 70/4/35
f 72/4/36 70/2/35 69/1/35
f 69/1/35 71/3/36 72/4/36
f 74/4/37 72/2/36 71/1/36
f 71/1/36 73/3/37 74/4/37
f 76/4/38 74/2/37 73/1/37
f 73/1/37 75/3/38 76/4/38
f 78/4/39 76/2/38 75/1/38
f 75/1/38 77/3/39 78/4/39
f 80/4/40 78/2/39 77/1/39
f 77/1/39 79/3/40 80/4/40
f 2/4/1 80/2/40 79/1/40
f 79/1/40 1/3/1 2/4/1

